# xmcd
#
# Track frame offsets:
# 150
# 15450
# 23896
# 38231
# 54181
# 66660
# 77042
# 90988
# 101803
# 117228
# 131653
# 148008
# 158287
# 172090
# 183864
# 200985
# 218748
# 238385
# 252594
# 267788
# 285560
# 302356
#
# Disc length: 4214 seconds
#
#
# Revision: 0
# Processed by: cddbd v1.5.1PL0 Copyright (c) Steve Scherf et al.
# Submitted via: FreeRIP 2.70 
#
DISCID=38107416
DTITLE=Voz e Viola 2004 - Vol. 2
DYEAR=2004
DGENRE=Sertanejo
TTITLE0=O Menino da Porteira - Luizinho e Limeira
TTITLE1=Vinte Anos - Nenete e Dorinho
TTITLE2=Saudade da Minha Terra - Belmonte e Amarai
TTITLE3=O Milagre do Ladrao - Zilo e Zalo
TTITLE4=Flor do Cafezal - Cascatinha e Inhana
TTITLE5=Apartamento 37 - Leo Canhoto e Robertinho
TTITLE6=Coracao Apaixonado - Silveira e Barrinha
TTITLE7=Pombinha Mensageira - Belmonte e Amarai
TTITLE8=Mais Uma Licao - Duo Siriema
TTITLE9=Disco Voador - Palmeira e Bia
TTITLE10=Meu Velho Pai - Leo Canhoto e Robertinho
TTITLE11=Tchau Amor - Ze Tapera e Teodoro
TTITLE12=Canoeiro - Tavares e Ze Negrao
TTITLE13=Parana do Norte - Flor da Serra e Santiago
TTITLE14=Couro de Boi - Palmeira e Bia
TTITLE15=Franguinho Na Panela - Lourenco e Lourival
TTITLE16=Golpe de Mestre - Tiao Carreiro e Pardinho
TTITLE17=Prato do Dia - Liu e leo
TTITLE18=Dona Jandira - Zico e Zeca
TTITLE19=Cabocla Tereza - Tonico e Tinoco
TTITLE20=O Doutor e o Caipira - Goiano e Paraense
TTITLE21=chalana - Mario Zan
EXTD=
EXTT0=
EXTT1=
EXTT2=
EXTT3=
EXTT4=
EXTT5=
EXTT6=
EXTT7=
EXTT8=
EXTT9=
EXTT10=
EXTT11=
EXTT12=
EXTT13=
EXTT14=
EXTT15=
EXTT16=
EXTT17=
EXTT18=
EXTT19=
EXTT20=
EXTT21=
PLAYORDER=
